<svg width="20" height="21" viewBox="0 0 20 21" fill="none" xmlns="http://www.w3.org/2000/svg">
<path d="M9.765 20.0222C15.1581 20.0222 19.53 15.6502 19.53 10.2572C19.53 4.86413 15.1581 0.492188 9.765 0.492188C4.37194 0.492188 0 4.86413 0 10.2572C0 15.6502 4.37194 20.0222 9.765 20.0222Z" fill="#E47F46"/>
<path d="M6.71371 7.20557H4.27246V15.7499H6.71371V7.20557Z" fill="white"/>
<path d="M12.5113 7.20557C10.8079 7.20557 10.515 7.82686 10.3758 8.42619V7.20557H7.93457V15.7499H10.3758V10.8674C10.3758 10.0759 10.8049 9.64682 11.5964 9.64682C12.3691 9.64682 12.8171 10.0667 12.8171 10.8674V15.7499H15.2583V11.4778C15.2583 9.0365 14.9403 7.20557 12.5113 7.20557Z" fill="white"/>
<path d="M5.49309 6.5953C6.16722 6.5953 6.71371 6.04881 6.71371 5.37468C6.71371 4.70055 6.16722 4.15405 5.49309 4.15405C4.81895 4.15405 4.27246 4.70055 4.27246 5.37468C4.27246 6.04881 4.81895 6.5953 5.49309 6.5953Z" fill="white"/>
</svg>
