<svg width="20" height="20" viewBox="0 0 20 20" fill="none" xmlns="http://www.w3.org/2000/svg">
<g clip-path="url(#clip0_2572_4599)">
<path fill-rule="evenodd" clip-rule="evenodd" d="M10 20C15.5228 20 20 15.5228 20 10C20 4.47715 15.5228 0 10 0C4.47715 0 0 4.47715 0 10C0 15.5228 4.47715 20 10 20Z" fill="#E47F46"/>
<path fill-rule="evenodd" clip-rule="evenodd" d="M10.92 13.0317C13.1218 13.0317 14.6155 10.9826 14.6155 8.23971C14.6155 6.16624 12.8946 4.23438 10.2797 4.23438C7.02561 4.23438 5.38477 6.61611 5.38477 8.60219C5.38477 9.80478 5.83044 10.8747 6.78737 11.2734C6.94414 11.3388 7.08461 11.2756 7.13026 11.0985C7.16148 10.9757 7.23697 10.666 7.26975 10.5373C7.3157 10.3619 7.29803 10.3005 7.17139 10.1475C6.89574 9.81501 6.71983 9.38538 6.71983 8.77617C6.71983 7.00936 8.01415 5.42765 10.0917 5.42765C11.9305 5.42765 12.9415 6.57462 12.9415 8.10712C12.9415 10.1231 12.0676 11.8245 10.77 11.8245C10.0532 11.8245 9.51727 11.2196 9.68887 10.4778C9.89433 9.59212 10.2937 8.63586 10.2937 7.99649C10.2937 7.42445 9.99279 6.94672 9.36982 6.94672C8.63721 6.94672 8.0489 7.72059 8.0489 8.75672C8.0489 9.41665 8.26771 9.86311 8.26771 9.86311C8.26771 9.86311 7.51802 13.1054 7.38638 13.673C7.26701 14.1899 7.24914 14.7581 7.26593 15.2382C7.31609 15.6689 7.7333 16.0197 8.09523 15.5472C8.34968 15.132 8.62327 14.6076 8.76483 14.0821C8.84925 13.7711 9.24682 12.1603 9.24682 12.1603C9.48507 12.6237 10.1806 13.0317 10.92 13.0317Z" fill="white"/>
</g>
<defs>
<clipPath id="clip0_2572_4599">
<rect width="20" height="20" fill="white"/>
</clipPath>
</defs>
</svg>
