<svg width="20" height="20" viewBox="0 0 20 20" fill="none" xmlns="http://www.w3.org/2000/svg">
<g clip-path="url(#clip0_2572_4591)">
<rect width="20" height="20" rx="10" fill="white"/>
<path fill-rule="evenodd" clip-rule="evenodd" d="M10 0C15.5191 0 20 4.48086 20 10C20 15.5191 15.5191 20 10 20C4.48086 20 0 15.5191 0 10C0 4.48086 4.48086 0 10 0ZM16.6667 10C16.6667 9.19297 16.0117 8.53801 15.2047 8.53801C14.807 8.53801 14.4561 8.69004 14.1988 8.94738C13.2047 8.23391 11.8246 7.76609 10.3041 7.70762L10.9707 4.5848L13.1345 5.04094C13.1579 5.59063 13.614 6.03508 14.1754 6.03508C14.7486 6.03508 15.2164 5.56727 15.2164 4.99414C15.2164 4.42105 14.7486 3.9532 14.1754 3.9532C13.7661 3.9532 13.4152 4.18715 13.2514 4.53801L10.8304 4.0234C10.7602 4.01168 10.69 4.0234 10.6316 4.05848C10.5731 4.09355 10.538 4.15203 10.5146 4.22223L9.77777 7.70762C8.22223 7.75438 6.83039 8.21051 5.82457 8.94738C5.56727 8.70176 5.20469 8.53801 4.81871 8.53801C4.01168 8.53801 3.35672 9.19297 3.35672 10C3.35672 10.5965 3.70762 11.0994 4.22223 11.3333C4.19883 11.4737 4.18715 11.6257 4.18715 11.7778C4.18715 14.0234 6.79531 15.8362 10.0234 15.8362C13.2514 15.8362 15.8596 14.0234 15.8596 11.7778C15.8596 11.6257 15.848 11.4854 15.8246 11.345C16.3041 11.1111 16.6667 10.5965 16.6667 10ZM12.4795 13.7895C11.7661 14.5029 10.4094 14.5497 10.0117 14.5497C9.61402 14.5497 8.24563 14.4912 7.54387 13.7895C7.43859 13.6842 7.43859 13.5088 7.54387 13.4035C7.64914 13.2982 7.82457 13.2982 7.92984 13.4035C8.37426 13.848 9.33332 14.0117 10.0234 14.0117C10.7134 14.0117 11.6608 13.848 12.117 13.4035C12.2222 13.2982 12.3977 13.2982 12.5029 13.4035C12.5848 13.5205 12.5848 13.6842 12.4795 13.7895ZM6.66668 11.0409C6.66668 10.4679 7.13449 10 7.70762 10C8.2807 10 8.74855 10.4679 8.74855 11.0409C8.74855 11.614 8.2807 12.0819 7.70762 12.0819C7.13449 12.0819 6.66668 11.614 6.66668 11.0409ZM12.2924 12.0819C11.7193 12.0819 11.2514 11.614 11.2514 11.0409C11.2514 10.4679 11.7193 10 12.2924 10C12.8655 10 13.3333 10.4679 13.3333 11.0409C13.3333 11.614 12.8655 12.0819 12.2924 12.0819Z" fill="#E47F46"/>
</g>
<defs>
<clipPath id="clip0_2572_4591">
<rect width="20" height="20" rx="10" fill="white"/>
</clipPath>
</defs>
</svg>
