<svg width="20" height="20" viewBox="0 0 20 20" fill="none" xmlns="http://www.w3.org/2000/svg">
<g clip-path="url(#clip0_2571_4586)">
<rect width="20" height="20" rx="10" fill="white"/>
<path fill-rule="evenodd" clip-rule="evenodd" d="M10 0C15.523 0 20 4.47695 20 10C20 15.523 15.523 20 10 20C4.47695 20 0 15.523 0 10C0 4.47695 4.47695 0 10 0ZM12.2461 4.14102C12.2465 4.31992 12.2992 6.90781 15.0145 7.06914C15.0145 7.81523 15.0152 8.35625 15.0152 9.06836C14.8098 9.08008 13.2277 8.96523 12.243 8.08711L12.2398 11.9793C12.2773 14.6809 10.2895 16.3246 7.69063 15.7566C3.20977 14.4164 4.69883 7.7707 9.19805 8.48164C9.19805 10.6273 9.19922 8.48125 9.19922 10.6273C7.34062 10.3539 6.71875 11.9 7.21289 13.0074C7.66211 14.0152 9.51289 14.2336 10.1586 12.8117C10.2316 12.5336 10.268 12.216 10.268 11.8598V4.13125L12.2461 4.14102Z" fill="#E47F46"/>
</g>
<defs>
<clipPath id="clip0_2571_4586">
<rect width="20" height="20" rx="10" fill="white"/>
</clipPath>
</defs>
</svg>
