<svg width="20" height="20" viewBox="0 0 20 20" fill="none" xmlns="http://www.w3.org/2000/svg">
<g clip-path="url(#clip0_2567_4566)">
<path d="M10.003 20.006C15.5275 20.006 20.006 15.5275 20.006 10.003C20.006 4.4785 15.5275 0 10.003 0C4.4785 0 0 4.4785 0 10.003C0 15.5275 4.4785 20.006 10.003 20.006Z" fill="#E47F46"/>
<path fill-rule="evenodd" clip-rule="evenodd" d="M12.2526 10.9725C12.1266 10.9125 11.5265 10.6185 11.4125 10.5765C11.3045 10.5345 11.2205 10.5165 11.1425 10.6365C11.0585 10.7625 10.8245 11.0325 10.7525 11.1165C10.6804 11.1945 10.6084 11.2005 10.4884 11.1465C10.3684 11.0865 9.97238 10.9545 9.50433 10.5405C9.1443 10.2104 8.89827 9.81441 8.82626 9.6884C8.75426 9.56839 8.82026 9.50238 8.88027 9.43637C8.93428 9.38237 9.00028 9.29836 9.06629 9.22635C9.12629 9.14834 9.1443 9.10034 9.1863 9.02233C9.2283 8.93832 9.2043 8.86632 9.1743 8.80631C9.1443 8.7463 8.89827 8.14624 8.79626 7.90622C8.70025 7.6662 8.59824 7.6962 8.52623 7.6962C8.45423 7.6902 8.37022 7.6902 8.29221 7.6902C8.2082 7.6902 8.07619 7.7202 7.96218 7.83421C7.85417 7.96022 7.53614 8.25425 7.53614 8.84831C7.53614 9.44237 7.97418 10.0244 8.03419 10.1084C8.09419 10.1864 8.89827 11.4166 10.1224 11.9446C10.4164 12.0646 10.6444 12.1426 10.8185 12.2026C11.1125 12.2927 11.3765 12.2807 11.5865 12.2507C11.8206 12.2147 12.3126 11.9566 12.4146 11.6686C12.5166 11.3806 12.5166 11.1405 12.4866 11.0865C12.4566 11.0265 12.3786 10.9965 12.2526 10.9425V10.9725ZM10.0264 13.9908H10.0204C9.29431 13.9908 8.57424 13.7928 7.95018 13.4208L7.80016 13.3368L6.27001 13.7328L6.67805 12.2447L6.58204 12.0886C6.174 11.4466 5.96398 10.7025 5.96398 9.94042C5.96398 7.7082 7.78216 5.89002 10.0324 5.89002C11.1185 5.89002 12.1326 6.31606 12.9007 7.08414C13.6687 7.84621 14.0948 8.86031 14.0948 9.94642C14.0888 12.1726 12.2706 13.9908 10.0264 13.9908ZM13.4887 6.50208C12.5526 5.59599 11.3285 5.08594 10.0204 5.08594C7.32611 5.08594 5.12989 7.27016 5.12989 9.95242C5.12989 10.8105 5.35792 11.6506 5.78396 12.3887L5.08789 14.9089L7.68015 14.2309C8.39422 14.6209 9.1983 14.8249 10.0204 14.8249C12.7147 14.8249 14.9109 12.6407 14.9109 9.95842C14.9109 8.65629 14.4008 7.43217 13.4827 6.51408L13.4887 6.50208Z" fill="white"/>
</g>
<defs>
<clipPath id="clip0_2567_4566">
<rect width="20" height="20" fill="white"/>
</clipPath>
</defs>
</svg>
