<svg width="20" height="20" viewBox="0 0 20 20" fill="none" xmlns="http://www.w3.org/2000/svg">
<g clip-path="url(#clip0_2567_4537)">
<path d="M10 20C4.478 20 0 15.522 0 10C0 4.478 4.478 0 10 0C15.522 0 20 4.478 20 10C20 15.522 15.522 20 10 20Z" fill="#E47F46"/>
<path d="M16.3634 6.78231C16.2114 6.20631 15.7614 5.75431 15.1894 5.60031C14.1534 5.32031 10.0014 5.32031 10.0014 5.32031C10.0014 5.32031 5.84737 5.32031 4.81337 5.60031C4.24137 5.75431 3.79137 6.20631 3.63937 6.78231C3.35938 7.82431 3.35938 10.0003 3.35938 10.0003C3.35938 10.0003 3.35937 12.1763 3.63737 13.2183C3.78937 13.7943 4.23938 14.2463 4.81138 14.4003C5.84738 14.6803 9.99937 14.6803 9.99937 14.6803C9.99937 14.6803 14.1534 14.6803 15.1874 14.4003C15.7594 14.2463 16.2094 13.7943 16.3614 13.2183C16.6394 12.1763 16.6394 10.0003 16.6394 10.0003C16.6394 10.0003 16.6394 7.82431 16.3634 6.78231ZM8.64138 11.9743V8.02631L12.1114 10.0003L8.64138 11.9743Z" fill="white"/>
</g>
<defs>
<clipPath id="clip0_2567_4537">
<rect width="20" height="20" fill="white"/>
</clipPath>
</defs>
</svg>
